# xmcd
#
# Track frame offsets:
#	150
#	18996
#	34776
#	55777
#	71682
#	92740
#	119293
#	133913
#	153253
#	169728
#	195453
#	219334
#
# Disc length: 3213 seconds
#
# Revision: 1
# Processed by: cddbd v1.5.2PL0 Copyright (c) Steve Scherf et al.
# Submitted via: audiograbber 1.83.01
#
DISCID=9f0c8b0c
DTITLE=Kenny Chesney - Welcome to the Fishbowl
DYEAR=2012
DGENRE=Country
TTITLE0=Come Over
TTITLE1=Feel Like a Rock Star (feat Tim McGraw)
TTITLE2=Sing 'Em Good My Friend
TTITLE3=Welcome to the Fishbowl
TTITLE4=I'm a Small Town
TTITLE5=El Cerrito Place
TTITLE6=Makes Me Wonder
TTITLE7=While He Still Knows Who I Am
TTITLE8=Time Flies
TTITLE9=To Get to You (55th and 3rd)
TTITLE10=Always Gonna Be You
TTITLE11=You and Tequila [Live at Red Rocks Amphitheatre] (feat Grace Potter)
EXTD=
EXTT0=
EXTT1=
EXTT2=
EXTT3=
EXTT4=
EXTT5=
EXTT6=
EXTT7=
EXTT8=
EXTT9=
EXTT10=
EXTT11=
PLAYORDER=
